<?xml version="1.0" encoding="UTF-8"?><svg id="uuid-3943097e-c961-43b0-921d-7182b5a1da57" xmlns="http://www.w3.org/2000/svg" width="900" height="900" viewBox="0 0 900 900"><metadata><c2pa:manifest xmlns:c2pa="http://c2pa.org/manifest">AAA0N2p1bWIAAAAeanVtZGMycGEAEQAQgAAAqgA4m3EDYzJwYQAAADQRanVtYgAAAEdqdW1kYzJtYQARABCAAACqADibcQN1cm46dXVpZDplZmEyM2I4Ni1kMWY0LTQ4ODktYmE3Yy03MTk5NTlkODdjOGYAAAABp2p1bWIAAAApanVtZGMyYXMAEQAQgAAAqgA4m3EDYzJwYS5hc3NlcnRpb25zAAAAAMpqdW1iAAAAJmp1bWRjYm9yABEAEIAAAKoAOJtxA2MycGEuYWN0aW9ucwAAAACcY2JvcqFnYWN0aW9uc4GjZmFjdGlvbmtjMnBhLmVkaXRlZG1zb2Z0d2FyZUFnZW50bUFkb2JlIEZpcmVmbHlxZGlnaXRhbFNvdXJjZVR5cGV4Rmh0dHA6Ly9jdi5pcHRjLm9yZy9uZXdzY29kZXMvZGlnaXRhbHNvdXJjZXR5cGUvdHJhaW5lZEFsZ29yaXRobWljTWVkaWEAAACsanVtYgAAAChqdW1kY2JvcgARABCAAACqADibcQNjMnBhLmhhc2guZGF0YQAAAAB8Y2JvcqVqZXhjbHVzaW9uc4GiZXN0YXJ0GOtmbGVuZ3RoGUWgZG5hbWVuanVtYmYgbWFuaWZlc3RjYWxnZnNoYTI1NmRoYXNoWCD3S6QgPl+uWAcNPFnoAsB3tLxzWeoxngq6kDx4vU/td2NwYWRJAAAAAAAAAAAAAAACC2p1bWIAAAAkanVtZGMyY2wAEQAQgAAAqgA4m3EDYzJwYS5jbGFpbQAAAAHfY2JvcqhoZGM6dGl0bGVvR2VuZXJhdGVkIEltYWdlaWRjOmZvcm1hdG1pbWFnZS9zdmcreG1samluc3RhbmNlSUR4LHhtcDppaWQ6NWQ1YjA4M2EtMzdkZC00MTlhLTg3NDYtZWJmYmRkODY3ZDI5b2NsYWltX2dlbmVyYXRvcng2QWRvYmVfSWxsdXN0cmF0b3IvMjguMCBhZG9iZV9jMnBhLzAuNy42IGMycGEtcnMvMC4yNS4ydGNsYWltX2dlbmVyYXRvcl9pbmZvgb9kbmFtZXFBZG9iZSBJbGx1c3RyYXRvcmd2ZXJzaW9uZDI4LjD/aXNpZ25hdHVyZXgZc2VsZiNqdW1iZj1jMnBhLnNpZ25hdHVyZWphc3NlcnRpb25zgqJjdXJseCdzZWxmI2p1bWJmPWMycGEuYXNzZXJ0aW9ucy9jMnBhLmFjdGlvbnNkaGFzaFgg66xm4WqDn3xgnOk59f7WI0GCp10rxJISEEb0ImTQK8GiY3VybHgpc2VsZiNqdW1iZj1jMnBhLmFzc2VydGlvbnMvYzJwYS5oYXNoLmRhdGFkaGFzaFggCxRjYlb+ioL+uy/AI99pKT/184TmZsgB8WY0U93Y4vNjYWxnZnNoYTI1NgAAMBBqdW1iAAAAKGp1bWRjMmNzABEAEIAAAKoAOJtxA2MycGEuc2lnbmF0dXJlAAAAL+BjYm9y0oRZDRSiATgkGCGCWQagMIIGnDCCBISgAwIBAgIUSXMgaz5138lsr39W/y0qrbBAB90wDQYJKoZIhvcNAQELBQAwdTELMAkGA1UEBhMCVVMxIzAhBgNVBAoTGkFkb2JlIFN5c3RlbXMgSW5jb3Jwb3JhdGVkMR0wGwYDVQQLExRBZG9iZSBUcnVzdCBTZXJ2aWNlczEiMCAGA1UEAxMZQWRvYmUgUHJvZHVjdCBTZXJ2aWNlcyBHNDAeFw0yNTEwMDcxNjM5MDdaFw0yNjEwMDcxNjM5MDdaMIGrMRMwEQYDVQQDDApBZG9iZSBDMlBBMSgwJgYDVQQLDB9Db250ZW50IEF1dGhlbnRpY2l0eSBJbml0aWF0aXZlMRMwEQYDVQQKDApBZG9iZSBJbmMuMREwDwYDVQQHDAhTYW4gSm9zZTETMBEGA1UECAwKQ2FsaWZvcm5pYTELMAkGA1UEBhMCVVMxIDAeBgkqhkiG9w0BCQEWEWNhaS1vcHNAYWRvYmUuY29tMIIBIjANBgkqhkiG9w0BAQEFAAOCAQ8AMIIBCgKCAQEAwxDBgdB9PXLpMXPw5oNgYkFWDPP1aSfth9TZPINOtOQlhp1v4h+hMxZWFjkZ3RJRuoSBrsSSYBaEfiDMKisi/sOxuFHKBV//l1rv3SrjrixANXIlqjGdIYydaMaFa/5ovFz/m4+SUz0ccYzqw+vSAzuRySGnpgm8Gmj+SEJcL/GIHzqU9bUy3NsizY2oY28yj32rbkOqeADSM51OqIJKloEBFFexzMunzpU+K2sLqheoR8FJMaR0fGXa/gqRzhkiBFhwUhLPS9s6+TCnz09UZMlXbdG/iFKj3UPFUDjqh0wtFgcz24DrUlaWeiltKHouymBHuirzvmOG0VtSPepxOQIDAQABo4IB6zCCAecwDAYDVR0TAQH/BAIwADAdBgNVHQ4EFgQUWPUDftBmDOGODlahl0JJ0rsnwv4wHwYDVR0jBBgwFoAU0K1CivB6FAclxpfAQ6gjhei1LSMwDgYDVR0PAQH/BAQDAgeAMCoGA1UdJQQjMCEGCSqGSIb3LwEBDAYKKwYBBAGD6F4CAQYIKwYBBQUHAwQwgYAGCCsGAQUFBwEBBHQwcjAoBggrBgEFBQcwAYYcaHR0cDovL29jc3Aub25lLmRpZ2ljZXJ0LmNvbTBGBggrBgEFBQcwAoY6aHR0cDovL2NhY2VydHMub25lLmRpZ2ljZXJ0LmNvbS9BZG9iZVByb2R1Y3RTZXJ2aWNlc0c0LmNydDBHBgNVHR8EQDA+MDygOqA4hjZodHRwOi8vY3JsLm9uZS5kaWdpY2VydC5jb20vQWRvYmVQcm9kdWN0U2VydmljZXNHNC5jcmwwgY4GA1UdIASBhjCBgzCBgAYJKoZIhvcvAQIDMHMwcQYIKwYBBQUHAgIwZQxjWW91IGFyZSBub3QgcGVybWl0dGVkIHRvIHVzZSB0aGlzIExpY2Vuc2UgQ2VydGlmaWNhdGUgZXhjZXB0IGFzIHBlcm1pdHRlZCBieSB0aGUgbGljZW5zZSBhZ3JlZW1lbnQuMA0GCSqGSIb3DQEBCwUAA4ICAQCbO3PFcK1RflehQ16xHqE1Gc86kSRgF6EOwIlenWkRx2VST2NjTvTlOnWobVLxf9gFIMNtemsFoIBfNmc+R7t+GNDM+hSfstLJkqFqAlQOtTiaOakg6c0ubSVWqgse/piPa15k/qrLpIu4VBe3BmytOSSV+HFOPKsd7cO09sJeDMatk3K4jHMe/anXESUXlaN+tolvXg6qAQ8XE1cSb65QFBiawUMej6jQbkNZp3jnorOBqSJfOxIQw79/WnFMYfxRH/lI2rsY43YphqXcBXifjJQ0jxFMqJGNrm2/yODL6BGVtrjn97kofZW2cKFz5rDSTzlcFEcKUAB1iW7eeeTSKlzRkV+Ok2ib84lTFgNbi9UBnT3KLS6EkZLEIpdA2h4Suen1pwHjWmZsxWA3h/39OocsOegLLNvpdVRLltf26j72oaQHfT0QyhzrzDW48FJN3olJqlCBCk0G5wp3O5KpGdyPq9hAGjTJrvpxsnCXSqo6ZZzvJlfkJqkAa6Xf92LK6ywrnUzy8aBEQEnyBF76joPM3gTWMnJVPCPl1B9Fyw+tyqYgtNMgJyvltIclrx4q7DLluMrb92BnoN6naw+bdz5IN/oqR1KEzYrhD24opdktY9Asr3R3KFDgdPvv/r/Rk4vdtYnkyAdc8zxnyhnUHcpAH9FDsrAK1Rvga4seslkGZzCCBmMwggRLoAMCAQICEA7hut+teK5vJr1RJZgHiC8wDQYJKoZIhvcNAQELBQAwbDELMAkGA1UEBhMCVVMxIzAhBgNVBAoTGkFkb2JlIFN5c3RlbXMgSW5jb3Jwb3JhdGVkMR0wGwYDVQQLExRBZG9iZSBUcnVzdCBTZXJ2aWNlczEZMBcGA1UEAxMQQWRvYmUgUm9vdCBDQSBHMjAeFw0yNDExMjAwMDAwMDBaFw00NDExMTkyMzU5NTlaMHUxCzAJBgNVBAYTAlVTMSMwIQYDVQQKExpBZG9iZSBTeXN0ZW1zIEluY29ycG9yYXRlZDEdMBsGA1UECxMUQWRvYmUgVHJ1c3QgU2VydmljZXMxIjAgBgNVBAMTGUFkb2JlIFByb2R1Y3QgU2VydmljZXMgRzQwggIiMA0GCSqGSIb3DQEBAQUAA4ICDwAwggIKAoICAQCsRfiAsVhIvM7pgpniwolO2rOkQxJIAf8upxV3nHjAEAuWn8gs13lskCaJTuwpouDcOb7XsXQ981QsBu3FAJ95B6zWizbZBkvqqe4wht0KbwEpHUfrozqclojgf4gZclkfvHYxaY79zd9t7UeA6J/c3mdt/hnLZZnfg+SryNcykHVmByrTMRSWkSl8K3mzhOIreJVaD32PON73vTe3LiZRco9lbtzS669UYBBfo3VAABMp04RilVaFChtWm5rr5i6t+C5bgHESDBNExPBLhjDb6JkywGCNnODEl8Yayak4ZVkaPjLF4vieUv1WLJvob3eBZcLrPqheHAPtUBAzTIoncT0zI4tzlzQIbJxVjRRQbdEc0zUhbDkDmwyk6PdGAbxH0+iRqo8JK+4RH4/O4HDVV5M6CUhxAAyeJDZybua4Hn9i72KeHRtRKULJBjK2WqueYA3GylZuK52OTPd5R7BuAxLrH/92IoXTznXNLA4JgwyYrkEehpW9XyuEntCfb6Jl0kltadyAr901KXinfxkW9woQxaTHxw79FI3wkYfXnkQVxRglpAeg1L0jM+rgBxaQ7l4kcnpkY47MyU1sMdKehwcjHbb0UIYQPyX4BHCxLVHG+TE6Aq/g8CDuGWqDWpLSbyTkB7RtE0GwK4SIPv9+VK021T22YO6cZkJ404Gz7wIDAQABo4H3MIH0MBIGA1UdEwEB/wQIMAYBAf8CAQAwNQYDVR0fBC4wLDAqoCigJoYkaHR0cDovL2NybC5hZG9iZS5jb20vYWRvYmVyb290ZzIuY3JsMA4GA1UdDwEB/wQEAwIBhjBXBgNVHSAEUDBOMEwGCSqGSIb3LwECAzA/MD0GCCsGAQUFBwIBFjFodHRwczovL3d3dy5hZG9iZS5jb20vbWlzYy9wa2kvcHJvZF9zdmNlX2Nwcy5odG1sMB0GA1UdDgQWBBTQrUKK8HoUByXGl8BDqCOF6LUtIzAfBgNVHSMEGDAWgBSmHOFtVCRMqI9Icr9uqYzV5Owx1DANBgkqhkiG9w0BAQsFAAOCAgEAkZaoQ1NOzli5oWtvmKbWBDBa97RBPb4QS5Z5Te6HikVvUvFFRBiVDcBp8OBzMtiCHhhnOqZ9ofrOmVesSfAnY4DE/GaeTrWjTXuTv6h9+xBE7A8Te/ZVA6JVgJzvRk9S59X09uc+5/opUj0ORDFMyrE0bJaiTFUHkzmFjWF/NPnhXqE/P9LOjWS7MaHcOJfqQUXcryOYNoP74MU2D0I3YwXqiCDwWX1uTyOlicHrCVuubV2qndRjZpJAz5Tt2XEvKo9EzjcaQn6w7I05vjqV/ZNmL8pY7s/xi7LJsPYacMDmvYEiDoVa0dYUgqFpKx0NSlnmnnT0RItAHZUNDVwpT5n+wMQmTfHuH5DaL3bj18k5yON5zfDxTLFJsklMW/Ubcljh/OyriYwVZIF9j2yEbwsZ0Oka8xJTG8yn8P6A0bPD7Kv5ptzqlcRhPCahB+8pd5i2uzkBJOmwDI6hKDkZMbnRk39G3sle9iLuTJZJSGfS9ye1yyDm5lEYFYSX85gX7my8H0RptWmknH3sgi/9/E9IyrSqmJJQ4tQN1W1jwUjJ/LAnEu3Dq20S0LZtWOqhEvsxOS77fx57FQHgdXGkLsT/hW5XO2uMUG+rEZsuhZlVhW6sAtcs3l20qPZItvs3dzns4MnzZloKBI9zMJW0FzDYvVavJAPR3+K2si7NvH6jZnNpZ1RzdKFpdHN0VG9rZW5zgaFjdmFsWQ5aMIIOVjADAgEAMIIOTQYJKoZIhvcNAQcCoIIOPjCCDjoCAQMxDzANBglghkgBZQMEAgEFADCBgwYLKoZIhvcNAQkQAQSgdARyMHACAQEGCWCGSAGG/WwHATAxMA0GCWCGSAFlAwQCAQUABCCXcx47f0VS2EaUKnSIW4VGEcb0OMhDTIryWgvVfWQKXwIRAN3zgMwpUbCV5p4aHRtXxYgYDzIwMjYwMzEyMDg0MzEyWgIJAJGSvW+JugVJoIIL2jCCBR4wggMGoAMCAQICEAkZDcEsnIfbMv0KtVC97UswDQYJKoZIhvcNAQELBQAwaTELMAkGA1UEBhMCVVMxFzAVBgNVBAoTDkRpZ2lDZXJ0LCBJbmMuMUEwPwYDVQQDEzhEaWdpQ2VydCBUcnVzdGVkIEc0IFRpbWVTdGFtcGluZyBSU0E0MDk2IFNIQTI1NiAyMDI1IENBMTAeFw0yNTA2MTEwMDAwMDBaFw0zNjA5MTAyMzU5NTlaMF8xCzAJBgNVBAYTAlVTMRcwFQYDVQQKEw5EaWdpQ2VydCwgSW5jLjE3MDUGA1UEAxMuQWRvYmUgU0hBMjU2IEVDQzI1NiBUaW1lc3RhbXAgUmVzcG9uZGVyIDIwMjUgMTBZMBMGByqGSM49AgEGCCqGSM49AwEHA0IABDqZydXZSO9L84jXxrJwIPPeIspw7/k8jP1iwxb5ZO0PbiN3ijVubsdbzV38sK17hnS0u5hnGOEdH2EnsUwRqfKjggGVMIIBkTAMBgNVHRMBAf8EAjAAMB0GA1UdDgQWBBQgdqGjbnEVj3SVDa6kLKQ2P1gZFTAfBgNVHSMEGDAWgBTvb1NK6eQGfHrK4pBW9i/USezLTjAOBgNVHQ8BAf8EBAMCB4AwFgYDVR0lAQH/BAwwCgYIKwYBBQUHAwgwgZUGCCsGAQUFBwEBBIGIMIGFMCQGCCsGAQUFBzABhhhodHRwOi8vb2NzcC5kaWdpY2VydC5jb20wXQYIKwYBBQUHMAKGUWh0dHA6Ly9jYWNlcnRzLmRpZ2ljZXJ0LmNvbS9EaWdpQ2VydFRydXN0ZWRHNFRpbWVTdGFtcGluZ1JTQTQwOTZTSEEyNTYyMDI1Q0ExLmNydDBfBgNVHR8EWDBWMFSgUqBQhk5odHRwOi8vY3JsMy5kaWdpY2VydC5jb20vRGlnaUNlcnRUcnVzdGVkRzRUaW1lU3RhbXBpbmdSU0E0MDk2U0hBMjU2MjAyNUNBMS5jcmwwIAYDVR0gBBkwFzAIBgZngQwBBAIwCwYJYIZIAYb9bAcBMA0GCSqGSIb3DQEBCwUAA4ICAQBKnP4qzrnk6bae64mNkuAvegVfF4WZ752PCIF1U+QchK/h9ENe079SAU7s66f6zo6g2tgpDobFpEtS7bcOasJ4TK8F0TlFf8IAS0rjvc+wOyjxzW2aSOoNIfODENGzChf8QdYixJGuMkzxFYHsp3co+NrSO5m2QVWknOqOT92on1RqrKIp8qsJGLAiktTUJ0FEWePq7ElN+HTLvHOv6tY48dUwk17MXneImj3CL5BI5fZ57pmtt0oBgdY7ywz4RkbS/M1pZ6pQ3UuVODntDU8qkoLGIKYqCqzEZeZJxaKxk/OMS5Q7KssP04mPK9c7xJ4e9/rE8XCGcITeBzZ52wftAJV2wnc6kpnsky5vAjYbCoj0yDAacokbfmT7y9AT0wvOJUPfSLjLyPI5J0xp95cdi8bHRoYDAI5szZ7MZKad1Vav0M+HVwZqY0CuNNSRxZEXTKjRTMnB0bXhVCo+XmeWP/a0uqTbToNPYWwgxAoJrjZQlsiFLaF0vGcc3xKmSnJ5TraBThVPllFZqqZu/D7hAUiAdChY94w7A2lUep9YChxva/tuyiaC8qgx3nmSMaNudy3rnGKQRpIx7lOUaM2Z+jNurUELw4sX16oDovhlbVmJ5Ekg/RgGL0SJBfmYfQs3I1YD8K6BiB31vHNEcX71GhVfxqvzfcR8GkY+xFIeTDCCBrQwggScoAMCAQICEA3HrFcF/yGZLkBDIgw6SYYwDQYJKoZIhvcNAQELBQAwYjELMAkGA1UEBhMCVVMxFTATBgNVBAoTDERpZ2lDZXJ0IEluYzEZMBcGA1UECxMQd3d3LmRpZ2ljZXJ0LmNvbTEhMB8GA1UEAxMYRGlnaUNlcnQgVHJ1c3RlZCBSb290IEc0MB4XDTI1MDUwNzAwMDAwMFoXDTM4MDExNDIzNTk1OVowaTELMAkGA1UEBhMCVVMxFzAVBgNVBAoTDkRpZ2lDZXJ0LCBJbmMuMUEwPwYDVQQDEzhEaWdpQ2VydCBUcnVzdGVkIEc0IFRpbWVTdGFtcGluZyBSU0E0MDk2IFNIQTI1NiAyMDI1IENBMTCCAiIwDQYJKoZIhvcNAQEBBQADggIPADCCAgoCggIBALR4MdMKmEFyvjxGwBysddujRmh0tFEXnU2tjQ2UtZmWgyxU7UNqEY81FzJsQqr5G7A6c+Gh/qm8Xi4aPCOo2N8S9SLrC6Kbltqn7SWCWgzbNfiR+2fkHUiljNOqnIVD/gG3SYDEAd4dg2dDGpeZGKe+42DFUF0mR/vtLa4+gKPsYfwEu7EEbkC9+0F2w4QJLVSTEG8yAR2CQWIM1iI5PHg62IVwxKSpO0XaF9DPfNBKS7Zazch8NF5vp7eaZ2CVNxpqumzTCNSOxm+SAWSuIr21Qomb+zzQWKhxKTVVgtmUPAW35xUUFREmDrMxSNlr/NsJyUXzdtFUUt4aS4CEeIY8y9IaaGBpPNXKFifinT7zL2gdFpBP9qh8SdLnEut/GcalNeJQ55IuwnKCgs+nrpuQNfVmUB5KlCX3ZA4x5HHKS+rqBvKWxdCyQEEGcbLe1b8Aw4wJkhU1JrPsFfxW1gaou30yZ46t4Y9F20HHfIY4/6vHespYMQmUiote8ladjS/nJ0+k6MvqzfpzPDOy5y6gqztiT96Fv/9bH7mQyogxG9QEPHrPV6/7umw052AkyiLA6tQbZl1KhBtTasySkuJDpsZGKdlsjg4u70EwgWbVRSX1Wd4+zoFpp4Ra+MlKM2baoD6x0VR4RjSpWM8o5a6D8bpfm4CLKczsG7ZrIGNTAgMBAAGjggFdMIIBWTASBgNVHRMBAf8ECDAGAQH/AgEAMB0GA1UdDgQWBBTvb1NK6eQGfHrK4pBW9i/USezLTjAfBgNVHSMEGDAWgBTs1+OC0nFdZEzfLmc/57qYrhwPTzAOBgNVHQ8BAf8EBAMCAYYwEwYDVR0lBAwwCgYIKwYBBQUHAwgwdwYIKwYBBQUHAQEEazBpMCQGCCsGAQUFBzABhhhodHRwOi8vb2NzcC5kaWdpY2VydC5jb20wQQYIKwYBBQUHMAKGNWh0dHA6Ly9jYWNlcnRzLmRpZ2ljZXJ0LmNvbS9EaWdpQ2VydFRydXN0ZWRSb290RzQuY3J0MEMGA1UdHwQ8MDowOKA2oDSGMmh0dHA6Ly9jcmwzLmRpZ2ljZXJ0LmNvbS9EaWdpQ2VydFRydXN0ZWRSb290RzQuY3JsMCAGA1UdIAQZMBcwCAYGZ4EMAQQCMAsGCWCGSAGG/WwHATANBgkqhkiG9w0BAQsFAAOCAgEAF877FoAc/gc9EXZxML2+C8i1NKZ/zdCHxYgaMH9Pw5tcBnPw6O6FTGNpoV2V4wzSUGvI9NAzaoQk97frPBtIj+ZLzdp+yXdhOP4hCFATuNT+ReOPK0mCefSG+tXqGpYZ3essBS3q8nL2UwM+NMvEuBd/2vmdYxDCvwzJv2sRUoKEfJ+nN57mQfQXwcAEGCvRR2qKtntujB71WPYAgwPyWLKu6RnaID/B0ba2H3LUiwDRAXx1Neq9ydOal95CHfmTnM4I+ZI2rVQfjXQA1WSjjf4J2a7jLzWGNqNX+DF0SQzHU0pTi4dBwp9nEC8EAqoxW6q17r0z0noDjs6+BFo+z7bKSBwZXTRNivYuve3L2oiKNqetRHdqfMTCW/NmKLJ9M+MtucVGyOxiDf06VXxyKkOirv6o02OoXN4bFzK0vlNMsvhlqgF2puE6FndlENSmE+9JGYxOGLS/D284NHNboDGcmWXfwXRy4kbu4QFhOm0xJuF2EZAOk5eCkhSxZON3rGlHqhpB/8MluDezooIs8CVnrpHMiD2wL40mm53+/j7tFaxYKIqL0Q4ssd8xHZnIn/7GELH3IdvG2XlM9q7WP/UwgOkw/HQtyRN62JK4S1C8uw3PdBunvAZapsiI5YKdvlarEvf8EA+8hcpSM9LHJmyrxaFtoza2zNaQ9k+5t1wxggG+MIIBugIBATB9MGkxCzAJBgNVBAYTAlVTMRcwFQYDVQQKEw5EaWdpQ2VydCwgSW5jLjFBMD8GA1UEAxM4RGlnaUNlcnQgVHJ1c3RlZCBHNCBUaW1lU3RhbXBpbmcgUlNBNDA5NiBTSEEyNTYgMjAyNSBDQTECEAkZDcEsnIfbMv0KtVC97UswDQYJYIZIAWUDBAIBBQCggdEwGgYJKoZIhvcNAQkDMQ0GCyqGSIb3DQEJEAEEMBwGCSqGSIb3DQEJBTEPFw0yNjAzMTIwODQzMTJaMCsGCyqGSIb3DQEJEAIMMRwwGjAYMBYEFNeHunkpY5+4wS9KphZRdMvgpYDzMC8GCSqGSIb3DQEJBDEiBCBkoMqzK3fmWOrgW23vrxfoZ4H54OdXaq/ZCMV28EqqwjA3BgsqhkiG9w0BCRACLzEoMCYwJDAiBCDTI6/iX909FvJvLyWefOSJ24bS2aqweyb1mDcIYIlWeDAKBggqhkjOPQQDAgRHMEUCIQDyuSBIkazG9XMRIC8paq0qCY/Bs5cd1KPCWj0OGPzE2QIgLnnRBVoAyhKr2HwBkb2jpWCBMyRx18J8BDBuuBN9/vxlclZhbHOhaG9jc3BWYWxzgVkC2zCCAtcKAQCgggLQMIICzAYJKwYBBQUHMAEBBIICvTCCArkwgaKiFgQU0K1CivB6FAclxpfAQ6gjhei1LSMYDzIwMjYwMzEwMTc0NjM3WjB3MHUwTTAJBgUrDgMCGgUABBSK77IBEG9rZRVNwaO3UamLc5LLFgQU0K1CivB6FAclxpfAQ6gjhei1LSMCFElzIGs+dd/JbK9/Vv8tKq2wQAfdgAAYDzIwMjYwMzEwMTc0NjM3WqARGA8yMDI2MDMxNzE3NDYzN1owDQYJKoZIhvcNAQELBQADggIBAAncgTYKgCo5Q7KLkPwmFYf0IYFF1RISQjwpE/CxDu/3pguB0KrdIwbzehbBV3/9syEe+ZEGpm53orRlZzQNG3PDIxGxFoUi0o49dK2tsIT7P0POn4ygGOPh4KrxYKIDMpaQk25FPhcARTqXYWP9OZNdv72I2zG0XfD39WGnYN7LgQC+d6633qiRtbabT56xePiCysOI1/kfE/VHRTfx0gJtBs0pvmKleU6pU21UaAx9e+7wBVLR64Y8DpuBop6ntc/n1hA9fQq9/IeIYxrq4+/jJmtIfB4AeRimnBMsOFUVrxlzkv/8flE8KZfMKVNEiDsCL+6DRmjONSDKuq6TzhCLyJKbr6tsoI+NQ772JWmxXTPDCzHmf/1OSXRjQU/M52OHeeJP3mpq7hCzLYXXOm7K42Ghog5jnsRLp2yachoQk94AH4x1Ag1D2A3AkJ261wNyqOl1Uraqi/I1UJOqruwwoYs2zC3Bt+8NzGH6ZEjSLc1QbbLAFDPwbwT+fKAQS4z7ZMHhOYxo5PSHR4E64QeUnsTKudMpET7gq9wCDVJeoJ8qYSyXgwtElQJtKumQyDrRxALbxcf2myFhEUDreiF880dMZEtE6gvRuZg5Y9K/DKJRlSc+C/5ozSsHc0mH1RqUDQubdTlSr0zPrh60HgGLQIvE86kRA1mWfpyrzKqwY3BhZFkQTwAAAAAAAAAAAAAAAAAAAAAAAAAAAAAAAAAAAAAAAAAAAAAAAAAAAAAAAAAAAAAAAAAAAAAAAAAAAAAAAAAAAAAAAAAAAAAAAAAAAAAAAAAAAAAAAAAAAAAAAAAAAAAAAAAAAAAAAAAAAAAAAAAAAAAAAAAAAAAAAAAAAAAAAAAAAAAAAAAAAAAAAAAAAAAAAAAAAAAAAAAAAAAAAAAAAAAAAAAAAAAAAAAAAAAAAAAAAAAAAAAAAAAAAAAAAAAAAAAAAAAAAAAAAAAAAAAAAAAAAAAAAAAAAAAAAAAAAAAAAAAAAAAAAAAAAAAAAAAAAAAAAAAAAAAAAAAAAAAAAAAAAAAAAAAAAAAAAAAAAAAAAAAAAAAAAAAAAAAAAAAAAAAAAAAAAAAAAAAAAAAAAAAAAAAAAAAAAAAAAAAAAAAAAAAAAAAAAAAAAAAAAAAAAAAAAAAAAAAAAAAAAAAAAAAAAAAAAAAAAAAAAAAAAAAAAAAAAAAAAAAAAAAAAAAAAAAAAAAAAAAAAAAAAAAAAAAAAAAAAAAAAAAAAAAAAAAAAAAAAAAAAAAAAAAAAAAAAAAAAAAAAAAAAAAAAAAAAAAAAAAAAAAAAAAAAAAAAAAAAAAAAAAAAAAAAAAAAAAAAAAAAAAAAAAAAAAAAAAAAAAAAAAAAAAAAAAAAAAAAAAAAAAAAAAAAAAAAAAAAAAAAAAAAAAAAAAAAAAAAAAAAAAAAAAAAAAAAAAAAAAAAAAAAAAAAAAAAAAAAAAAAAAAAAAAAAAAAAAAAAAAAAAAAAAAAAAAAAAAAAAAAAAAAAAAAAAAAAAAAAAAAAAAAAAAAAAAAAAAAAAAAAAAAAAAAAAAAAAAAAAAAAAAAAAAAAAAAAAAAAAAAAAAAAAAAAAAAAAAAAAAAAAAAAAAAAAAAAAAAAAAAAAAAAAAAAAAAAAAAAAAAAAAAAAAAAAAAAAAAAAAAAAAAAAAAAAAAAAAAAAAAAAAAAAAAAAAAAAAAAAAAAAAAAAAAAAAAAAAAAAAAAAAAAAAAAAAAAAAAAAAAAAAAAAAAAAAAAAAAAAAAAAAAAAAAAAAAAAAAAAAAAAAAAAAAAAAAAAAAAAAAAAAAAAAAAAAAAAAAAAAAAAAAAAAAAAAAAAAAAAAAAAAAAAAAAAAAAAAAAAAAAAAAAAAAAAAAAAAAAAAAAAAAAAAAAAAAAAAAAAAAAAAAAAAAAAAAAAAAAAAAAAAAAAAAAAAAAAAAAAAAAAAAAAAAAAAAAAAAAAAAAAAAAAAAAAAAAAAAAAAAAAAAAAAAAAAAAAAAAAAAAAAAAAAAAAAAAAAAAAAAAAAAAAAAAAAAAAAAAAAAAAAAAAAAAAAAAAAAAAAAAAAAAAAAAAAAAAAAAAAAAAAAAAAAAAAAAAAAAAAAAAAAAAAAAAAAAAAAAAAAAAAAAAAAAAAAAAAAAAAAAAAAAAAAAAAAAAAAAAAAAAAAAAAAAAAAAAAAAAAAAAAAAAAAAAAAAAAAAAAAAAAAAAAAAAAAAAAAAAAAAAAAAAAAAAAAAAAAAAAAAAAAAAAAAAAAAAAAAAAAAAAAAAAAAAAAAAAAAAAAAAAAAAAAAAAAAAAAAAAAAAAAAAAAAAAAAAAAAAAAAAAAAAAAAAAAAAAAAAAAAAAAAAAAAAAAAAAAAAAAAAAAAAAAAAAAAAAAAAAAAAAAAAAAAAAAAAAAAAAAAAAAAAAAAAAAAAAAAAAAAAAAAAAAAAAAAAAAAAAAAAAAAAAAAAAAAAAAAAAAAAAAAAAAAAAAAAAAAAAAAAAAAAAAAAAAAAAAAAAAAAAAAAAAAAAAAAAAAAAAAAAAAAAAAAAAAAAAAAAAAAAAAAAAAAAAAAAAAAAAAAAAAAAAAAAAAAAAAAAAAAAAAAAAAAAAAAAAAAAAAAAAAAAAAAAAAAAAAAAAAAAAAAAAAAAAAAAAAAAAAAAAAAAAAAAAAAAAAAAAAAAAAAAAAAAAAAAAAAAAAAAAAAAAAAAAAAAAAAAAAAAAAAAAAAAAAAAAAAAAAAAAAAAAAAAAAAAAAAAAAAAAAAAAAAAAAAAAAAAAAAAAAAAAAAAAAAAAAAAAAAAAAAAAAAAAAAAAAAAAAAAAAAAAAAAAAAAAAAAAAAAAAAAAAAAAAAAAAAAAAAAAAAAAAAAAAAAAAAAAAAAAAAAAAAAAAAAAAAAAAAAAAAAAAAAAAAAAAAAAAAAAAAAAAAAAAAAAAAAAAAAAAAAAAAAAAAAAAAAAAAAAAAAAAAAAAAAAAAAAAAAAAAAAAAAAAAAAAAAAAAAAAAAAAAAAAAAAAAAAAAAAAAAAAAAAAAAAAAAAAAAAAAAAAAAAAAAAAAAAAAAAAAAAAAAAAAAAAAAAAAAAAAAAAAAAAAAAAAAAAAAAAAAAAAAAAAAAAAAAAAAAAAAAAAAAAAAAAAAAAAAAAAAAAAAAAAAAAAAAAAAAAAAAAAAAAAAAAAAAAAAAAAAAAAAAAAAAAAAAAAAAAAAAAAAAAAAAAAAAAAAAAAAAAAAAAAAAAAAAAAAAAAAAAAAAAAAAAAAAAAAAAAAAAAAAAAAAAAAAAAAAAAAAAAAAAAAAAAAAAAAAAAAAAAAAAAAAAAAAAAAAAAAAAAAAAAAAAAAAAAAAAAAAAAAAAAAAAAAAAAAAAAAAAAAAAAAAAAAAAAAAAAAAAAAAAAAAAAAAAAAAAAAAAAAAAAAAAAAAAAAAAAAAAAAAAAAAAAAAAAAAAAAAAAAAAAAAAAAAAAAAAAAAAAAAAAAAAAAAAAAAAAAAAAAAAAAAAAAAAAAAAAAAAAAAAAAAAAAAAAAAAAAAAAAAAAAAAAAAAAAAAAAAAAAAAAAAAAAAAAAAAAAAAAAAAAAAAAAAAAAAAAAAAAAAAAAAAAAAAAAAAAAAAAAAAAAAAAAAAAAAAAAAAAAAAAAAAAAAAAAAAAAAAAAAAAAAAAAAAAAAAAAAAAAAAAAAAAAAAAAAAAAAAAAAAAAAAAAAAAAAAAAAAAAAAAAAAAAAAAAAAAAAAAAAAAAAAAAAAAAAAAAAAAAAAAAAAAAAAAAAAAAAAAAAAAAAAAAAAAAAAAAAAAAAAAAAAAAAAAAAAAAAAAAAAAAAAAAAAAAAAAAAAAAAAAAAAAAAAAAAAAAAAAAAAAAAAAAAAAAAAAAAAAAAAAAAAAAAAAAAAAAAAAAAAAAAAAAAAAAAAAAAAAAAAAAAAAAAAAAAAAAAAAAAAAAAAAAAAAAAAAAAAAAAAAAAAAAAAAAAAAAAAAAAAAAAAAAAAAAAAAAAAAAAAAAAAAAAAAAAAAAAAAAAAAAAAAAAAAAAAAAAAAAAAAAAAAAAAAAAAAAAAAAAAAAAAAAAAAAAAAAAAAAAAAAAAAAAAAAAAAAAAAAAAAAAAAAAAAAAAAAAAAAAAAAAAAAAAAAAAAAAAAAAAAAAAAAAAAAAAAAAAAAAAAAAAAAAAAAAAAAAAAAAAAAAAAAAAAAAAAAAAAAAAAAAAAAAAAAAAAAAAAAAAAAAAAAAAAAAAAAAAAAAAAAAAAAAAAAAAAAAAAAAAAAAAAAAAAAAAAAAAAAAAAAAAAAAAAAAAAAAAAAAAAAAAAAAAAAAAAAAAAAAAAAAAAAAAAAAAAAAAAAAAAAAAAAAAAAAAAAAAAAAAAAAAAAAAAAAAAAAAAAAAAAAAAAAAAAAAAAAAAAAAAAAAAAAAAAAAAAAAAAAAAAAAAAAAAAAAAAAAAAAAAAAAAAAAAAAAAAAAAAAAAAAAAAAAAAAAAAAAAAAAAAAAAAAAAAAAAAAAAAAAAAAAAAAAAAAAAAAAAAAAAAAAAAAAAAAAAAAAAAAAAAAAAAAAAAAAAAAAAAAAAAAAAAAAAAAAAAAAAAAAAAAAAAAAAAAAAAAAAAAAAAAAAAAAAAAAAAAAAAAAAAAAAAAAAAAAAAAAAAAAAAAAAAAAAAAAAAAAAAAAAAAAAAAAAAAAAAAAAAAAAAAAAAAAAAAAAAAAAAAAAAAAAAAAAAAAAAAAAAAAAAAAAAAAAAAAAAAAAAAAAAAAAAAAAAAAAAAAAAAAAAAAAAAAAAAAAAAAAAAAAAAAAAAAAAAAAAAAAAAAAAAAAAAAAAAAAAAAAAAAAAAAAAAAAAAAAAAAAAAAAAAAAAAAAAAAAAAAAAAAAAAAAAAAAAAAAAAAAAAAAAAAAAAAAAAAAAAAAAAAAAAAAAAAAAAAAAAAAAAAAAAAAAAAAAAAAAAAAAAAAAAAAAAAAAAAAAAAAAAAAAAAAAAAAAAAAAAAAAAAAAAAAAAAAAAAAAAAAAAAAAAAAAAAAAAAAAAAAAAAAAAAAAAAAAAAAAAAAAAAAAAAAAAAAAAAAAAAAAAAAAAAAAAAAAAAAAAAAAAAAAAAAAAAAAAAAAAAAAAAAAAAAAAAAAAAAAAAAAAAAAAAAAAAAAAAAAAAAAAAAAAAAAAAAAAAAAAAAAAAAAAAAAAAAAAAAAAAAAAAAAAAAAAAAAAAAAAAAAAAAAAAAAAAAAAAAAAAAAAAAAAAAAAAAAAAAAAAAAAAAAAAAAAAAAAAAAAAAAAAAAAAAAAAAAAAAAAAAAAAAAAAAAAAAAAAAAAAAAAAAAAAAAAAAAAAAAAAAAAAAAAAAAAAAAAAAAAAAAAAAAAAAAAAAAAAAAAAAAAAAAAAAAAAAAAAAAAAAAAAAAAAAAAAAAAAAAAAAAAAAAAAAAAAAAAAAAAAAAAAAAAAAAAAAAAAAAAAAAAAAAAAAAAAAAAAAAAAAAAAAAAAAAAAAAAAAAAAAAAAAAAAAAAAAAAAAAAAAAAAAAAAAAAAAAAAAAAAAAAAAAAAAAAAAAAAAAAAAAAAAAAAAAAAAAAAAAAAAAAAAAAAAAAAAAAAAAAAAAAAAAAAAAAAAAAAAAAAAAAAAAAAAAAAAAAAAAAAAAAAAAAAAAAAAAAAAAAAAAAAAAAAAAAAAAAAAAAAAAAAAAAAAAAAAAAAAAAAAAAAAAAAAAAAAAAAAAAAAAAAAAAAAAAAAAAAAAAAAAAAAAAAAAAAAAAAAAAAAAAAAAAAAAAAAAAAAAAAAAAAAAAAAAAAAAAAAAAAAAAAAAAAAAAAAAAAAAAAAAAAAAAAAAAAAAAAAAAAAAAAAAAAAAAAAAAAAAAAAAAAAAAAAAAAAAAAAAAAAAAAAAAAAAAAAAAAAAAAAAAAAAAAAAAAAAAAAAAAAAAAAAAAAAAAAAAAAAAAAAAAAAAAAAAAAAAAAAAAAAAAAAAAAAAAAAAAAAAAAAAAAAAAAAAAAAAAAAAAAAAAAAAAAAAAAAAAAAAAAAAAAAAAAAAAAAAAAAAAAAAAAAAAAAAAAAAAAAAAAAAAAAAAAAAAAAAAAAAAAAAAAAAAAAAAAAAAAAAAAAAAAAAAAAAAAAAAAAAAAAAAAAAAAAAAAAAAAAAAAAAAAAAAAAAAAAAAAAAAAAAAAAAAAAAAAAAAAAAAAAAAAAAAAAAAAAAAAAAAAAAAAAAAAAAAAAAAAAAAAAAAAAAAAAAAAAAAAAAAAAAAAAAAAAAAAAAAAAAAAAAAAAAAAAAAAAAAAAAAAAAAAAAAAAAAAAAAAAAAAAAAAAAAAAAAAA9lkBAANrzLdLOqBOBt7xGRHHyIB8j9BHbvieHVPHQ6CB0K1idV7Bfgqxh31yG5icm3RUIOUxsqUQMBFb/VW3Z34fstxzeK4iQagVRkZ2/BNWZjkuDoUcN4gapqG/mP8gWE3CrczfUmypv7VOFitNbAwud8iCu1lyf33Mjcl0rvnLnn6PhjUQmhfcYlaCMG8+VSSXhzl4W2Aw+v7tQhuLb7kYeFJExoXIiQsnT9ka0Q/5LIVVjKGBFEw9b4OVIYPLqajAfmd91O+DfMz8Yi/M15/AuMIh2GoICV9FsqfakgslZ2e+F8XwR3leWdVfS+ILSRBPQOWpNqa5kaS/ltgmsL2Wsyo=</c2pa:manifest></metadata><path d="m200.09,591c-.35,0-.71-.09-1.02-.28-.59-.35-.96-.98-.98-1.67l-3.25-125.67c-.02-.77.4-1.48,1.09-1.83l120.17-61.24c.29-.15.6-.22.91-.22.36,0,.71.09,1.03.28.59.35.96.98.97,1.67l2.87,125.44c.02.77-.4,1.48-1.09,1.83l-119.79,61.48c-.29.15-.6.22-.91.22Z" style="fill:#e4d598; stroke-width:0px;"/><path d="m317,402.08l2.87,125.44-119.79,61.48-3.25-125.67,120.17-61.24m0-4c-.62,0-1.24.14-1.82.44l-120.17,61.24c-1.37.7-2.22,2.13-2.18,3.67l3.25,125.67c.04,1.37.78,2.64,1.96,3.34.63.37,1.33.56,2.04.56.63,0,1.25-.15,1.83-.44l119.79-61.48c1.36-.7,2.21-2.12,2.17-3.65l-2.87-125.44c-.03-1.38-.77-2.64-1.95-3.34-.63-.38-1.34-.57-2.05-.57h0Z" style="fill:#614b2b; stroke-width:0px;"/><path d="m428.79,593.33c-.35,0-.7-.09-1.01-.27l-108.92-63.81c-.6-.35-.97-.99-.99-1.68l-2.87-125.44c-.02-.72.36-1.4.98-1.77.31-.19.67-.28,1.02-.28s.69.09,1.01.27l109.24,63.53c.6.35.98.99.99,1.69l2.55,125.72c.01.72-.36,1.4-.99,1.76-.31.18-.66.28-1.01.28Z" style="fill:#e4d598; stroke-width:0px;"/><path d="m317,402.08l109.24,63.52,2.55,125.72-108.92-63.81-2.87-125.44m0-4c-.7,0-1.41.19-2.03.56-1.25.74-2,2.09-1.96,3.54l2.87,125.44c.03,1.39.78,2.66,1.98,3.36l108.92,63.81c.62.37,1.32.55,2.02.55s1.4-.18,2.02-.55c1.25-.73,2-2.08,1.98-3.53l-2.55-125.72c-.03-1.4-.78-2.68-1.99-3.38l-109.24-63.52c-.62-.36-1.32-.54-2.01-.54h0Z" style="fill:#614b2b; stroke-width:0px;"/><path d="m308.92,655.26c-.35,0-.7-.09-1.02-.28l-108.83-64.26c-.63-.37-1-1.05-.98-1.78s.44-1.39,1.09-1.72l119.79-61.48c.29-.15.6-.22.91-.22.35,0,.7.09,1.01.27l108.92,63.81c.63.37,1.01,1.05.99,1.78-.02.73-.43,1.39-1.08,1.72l-119.88,61.93c-.29.15-.6.22-.92.22Z" style="fill:#cdc8bd; stroke-width:0px;"/><path d="m319.88,527.52l108.92,63.81-119.88,61.93-108.83-64.26,119.79-61.48m0-4c-.63,0-1.25.15-1.83.44l-119.79,61.48c-1.3.67-2.13,1.98-2.17,3.44-.04,1.46.71,2.82,1.96,3.56l108.83,64.26c.63.37,1.33.56,2.03.56.63,0,1.26-.15,1.84-.45l119.88-61.93c1.3-.67,2.12-1.99,2.16-3.45.04-1.46-.72-2.82-1.98-3.56l-108.92-63.81c-.62-.37-1.32-.55-2.02-.55h0Z" style="fill:#614b2b; stroke-width:0px;"/><path d="m308.92,655.26c-.35,0-.7-.09-1.02-.28l-108.83-64.26c-.59-.35-.96-.98-.98-1.67l-3.25-125.67c-.02-.73.36-1.41.98-1.77.31-.18.67-.28,1.02-.28s.7.09,1.01.27l109.15,63.98c.6.35.97.99.99,1.68l2.93,125.96c.02.73-.36,1.4-.99,1.77-.31.18-.66.27-1.01.27Z" style="fill:#cdc8bd; stroke-width:0px;"/><path d="m196.84,463.33l109.15,63.98,2.93,125.96-108.83-64.26-3.25-125.67m0-4c-.7,0-1.41.19-2.03.56-1.25.74-2,2.1-1.97,3.55l3.25,125.67c.04,1.38.78,2.64,1.96,3.34l108.83,64.26c.63.37,1.33.56,2.03.56s1.4-.18,2.02-.55c1.25-.73,2.01-2.09,1.98-3.54l-2.93-125.96c-.03-1.39-.78-2.66-1.98-3.36l-109.15-63.98c-.62-.37-1.32-.55-2.02-.55h0Z" style="fill:#614b2b; stroke-width:0px;"/><path d="m308.92,655.26c-.35,0-.71-.09-1.02-.28-.59-.35-.96-.98-.98-1.67l-2.93-125.96c-.02-.77.4-1.48,1.09-1.83l120.26-61.69c.29-.15.6-.22.91-.22.36,0,.71.09,1.03.28.59.35.96.99.97,1.68l2.55,125.72c.01.76-.4,1.47-1.08,1.82l-119.88,61.93c-.29.15-.6.22-.92.22Z" style="fill:#cdc8bd; stroke-width:0px;"/><path d="m426.25,465.61l2.55,125.72-119.88,61.93-2.93-125.96,120.26-61.69m0-4c-.63,0-1.25.15-1.83.44l-120.26,61.69c-1.36.7-2.21,2.12-2.17,3.65l2.93,125.96c.03,1.38.77,2.64,1.96,3.35.63.37,1.33.56,2.04.56.63,0,1.26-.15,1.84-.45l119.88-61.93c1.36-.7,2.19-2.11,2.16-3.63l-2.55-125.72c-.03-1.38-.76-2.65-1.95-3.35-.63-.38-1.34-.57-2.05-.57h0Z" style="fill:#614b2b; stroke-width:0px;"/><path d="m200.09,433.65c-.35,0-.71-.09-1.02-.28-.59-.35-.96-.98-.98-1.67l-3.25-125.67c-.02-.77.4-1.48,1.09-1.83l120.17-61.24c.29-.15.6-.22.91-.22.36,0,.71.09,1.03.28.59.35.96.98.97,1.67l2.87,125.44c.02.77-.4,1.48-1.09,1.83l-119.79,61.48c-.29.15-.6.22-.91.22Z" style="fill:#e4d598; stroke-width:0px;"/><path d="m317,244.73l2.87,125.44-119.79,61.48-3.25-125.67,120.17-61.24m0-4c-.62,0-1.24.14-1.82.44l-120.17,61.24c-1.37.7-2.22,2.13-2.18,3.67l3.25,125.67c.04,1.37.78,2.64,1.96,3.34.63.37,1.33.56,2.04.56.63,0,1.25-.15,1.83-.44l119.79-61.48c1.36-.7,2.21-2.12,2.17-3.65l-2.87-125.44c-.03-1.38-.77-2.64-1.95-3.34-.63-.38-1.34-.57-2.05-.57h0Z" style="fill:#614b2b; stroke-width:0px;"/><path d="m428.79,435.98c-.35,0-.7-.09-1.01-.27l-108.92-63.81c-.6-.35-.97-.99-.99-1.68l-2.87-125.44c-.02-.72.36-1.4.98-1.77.31-.19.67-.28,1.02-.28s.69.09,1.01.27l109.24,63.52c.6.35.98.99.99,1.69l2.55,125.72c.01.72-.36,1.4-.99,1.76-.31.18-.66.28-1.01.28Z" style="fill:#e4d598; stroke-width:0px;"/><path d="m317,244.73l109.24,63.52,2.55,125.72-108.92-63.81-2.87-125.44m0-4c-.7,0-1.41.19-2.03.56-1.25.74-2,2.09-1.96,3.54l2.87,125.44c.03,1.39.78,2.66,1.98,3.36l108.92,63.81c.62.37,1.32.55,2.02.55s1.4-.18,2.02-.55c1.25-.73,2-2.08,1.98-3.53l-2.55-125.72c-.03-1.4-.78-2.68-1.99-3.38l-109.24-63.52c-.62-.36-1.32-.54-2.01-.54h0Z" style="fill:#614b2b; stroke-width:0px;"/><path d="m308.92,497.91c-.35,0-.7-.09-1.02-.28l-108.83-64.26c-.63-.37-1-1.05-.98-1.78s.44-1.39,1.09-1.72l119.79-61.48c.29-.15.6-.22.91-.22.35,0,.7.09,1.01.27l108.92,63.81c.63.37,1.01,1.05.99,1.78-.02.73-.43,1.39-1.08,1.72l-119.88,61.93c-.29.15-.6.22-.92.22Z" style="fill:#cdc8bd; stroke-width:0px;"/><path d="m319.88,370.17l108.92,63.81-119.88,61.93-108.83-64.26,119.79-61.48m0-4c-.63,0-1.25.15-1.83.44l-119.79,61.48c-1.3.67-2.13,1.98-2.17,3.44-.04,1.46.71,2.82,1.96,3.56l108.83,64.26c.63.37,1.33.56,2.03.56.63,0,1.26-.15,1.84-.45l119.88-61.93c1.3-.67,2.12-1.99,2.16-3.45.04-1.46-.72-2.82-1.98-3.56l-108.92-63.81c-.62-.37-1.32-.55-2.02-.55h0Z" style="fill:#614b2b; stroke-width:0px;"/><path d="m308.92,497.91c-.35,0-.7-.09-1.02-.28l-108.83-64.26c-.59-.35-.96-.98-.98-1.67l-3.25-125.67c-.02-.73.36-1.4.98-1.77.31-.19.67-.28,1.02-.28s.7.09,1.01.27l109.15,63.98c.6.35.97.99.99,1.68l2.93,125.96c.02.73-.36,1.4-.99,1.77-.31.18-.66.27-1.01.27Z" style="fill:#cdc8bd; stroke-width:0px;"/><path d="m196.84,305.98l109.15,63.98,2.93,125.96-108.83-64.26-3.25-125.67m0-4c-.7,0-1.41.19-2.03.56-1.25.74-2,2.1-1.97,3.55l3.25,125.67c.04,1.38.78,2.64,1.96,3.34l108.83,64.26c.63.37,1.33.56,2.03.56s1.4-.18,2.02-.55c1.25-.73,2.01-2.09,1.98-3.54l-2.93-125.96c-.03-1.39-.78-2.66-1.98-3.36l-109.15-63.98c-.62-.37-1.32-.55-2.02-.55h0Z" style="fill:#614b2b; stroke-width:0px;"/><path d="m308.92,497.91c-.35,0-.71-.09-1.02-.28-.59-.35-.96-.98-.98-1.67l-2.93-125.96c-.02-.77.4-1.48,1.09-1.83l120.26-61.69c.29-.15.6-.22.91-.22.36,0,.71.09,1.03.28.59.35.96.99.97,1.68l2.55,125.72c.01.76-.4,1.47-1.08,1.82l-119.88,61.93c-.29.15-.6.22-.92.22Z" style="fill:#cdc8bd; stroke-width:0px;"/><path d="m426.25,308.26l2.55,125.72-119.88,61.93-2.93-125.96,120.26-61.69m0-4c-.63,0-1.25.15-1.83.44l-120.26,61.69c-1.36.7-2.21,2.12-2.17,3.65l2.93,125.96c.03,1.38.77,2.64,1.96,3.35.63.37,1.33.56,2.04.56.63,0,1.26-.15,1.84-.45l119.88-61.93c1.36-.7,2.19-2.11,2.16-3.63l-2.55-125.72c-.03-1.38-.76-2.65-1.95-3.35-.63-.38-1.34-.57-2.05-.57h0Z" style="fill:#614b2b; stroke-width:0px;"/><path d="m339.21,669.89c-.35,0-.71-.09-1.02-.28-.59-.35-.96-.98-.98-1.67l-3.25-125.67c-.02-.77.4-1.48,1.09-1.83l120.17-61.24c.29-.15.6-.22.91-.22.36,0,.71.09,1.03.28.59.35.96.98.97,1.67l2.87,125.44c.02.77-.4,1.48-1.09,1.83l-119.79,61.48c-.29.15-.6.22-.91.22Z" style="fill:#e4d598; stroke-width:0px;"/><path d="m456.12,480.98l2.87,125.44-119.79,61.48-3.25-125.67,120.17-61.24m0-4c-.62,0-1.24.14-1.82.44l-120.17,61.24c-1.37.7-2.22,2.13-2.18,3.67l3.25,125.67c.04,1.37.78,2.64,1.96,3.34.63.37,1.33.56,2.04.56.63,0,1.25-.15,1.83-.44l119.79-61.48c1.36-.7,2.21-2.12,2.17-3.65l-2.87-125.44c-.03-1.38-.77-2.64-1.95-3.34-.63-.38-1.34-.57-2.05-.57h0Z" style="fill:#614b2b; stroke-width:0px;"/><path d="m567.91,672.22c-.35,0-.7-.09-1.01-.27l-108.92-63.81c-.6-.35-.97-.99-.99-1.68l-2.87-125.44c-.02-.72.36-1.4.98-1.77.31-.19.67-.28,1.02-.28s.69.09,1.01.27l109.24,63.52c.6.35.98.99.99,1.69l2.55,125.72c.01.72-.36,1.4-.99,1.76-.31.18-.66.28-1.01.28Z" style="fill:#e4d598; stroke-width:0px;"/><path d="m456.12,480.98l109.24,63.52,2.55,125.72-108.92-63.81-2.87-125.44m0-4c-.7,0-1.41.19-2.03.56-1.25.74-2,2.09-1.96,3.54l2.87,125.44c.03,1.39.78,2.66,1.98,3.36l108.92,63.81c.62.37,1.32.55,2.02.55s1.4-.18,2.02-.55c1.25-.73,2-2.08,1.98-3.53l-2.55-125.72c-.03-1.4-.78-2.68-1.99-3.38l-109.24-63.52c-.62-.36-1.32-.54-2.01-.54h0Z" style="fill:#614b2b; stroke-width:0px;"/><path d="m448.03,734.15c-.35,0-.7-.09-1.02-.28l-108.83-64.26c-.63-.37-1-1.05-.98-1.78s.44-1.39,1.09-1.72l119.79-61.48c.29-.15.6-.22.91-.22.35,0,.7.09,1.01.27l108.92,63.81c.63.37,1.01,1.05.99,1.78-.02.73-.43,1.39-1.08,1.72l-119.88,61.93c-.29.15-.6.22-.92.22Z" style="fill:#cdc8bd; stroke-width:0px;"/><path d="m458.99,606.41l108.92,63.81-119.88,61.93-108.83-64.26,119.79-61.48m0-4c-.63,0-1.25.15-1.83.44l-119.79,61.48c-1.3.67-2.13,1.98-2.17,3.44-.04,1.46.71,2.82,1.96,3.56l108.83,64.26c.63.37,1.33.56,2.03.56.63,0,1.26-.15,1.84-.45l119.88-61.93c1.3-.67,2.12-1.99,2.16-3.45.04-1.46-.72-2.82-1.98-3.56l-108.92-63.81c-.62-.37-1.32-.55-2.02-.55h0Z" style="fill:#614b2b; stroke-width:0px;"/><path d="m448.03,734.15c-.35,0-.7-.09-1.02-.28l-108.83-64.26c-.59-.35-.96-.98-.98-1.67l-3.25-125.67c-.02-.73.36-1.41.98-1.77.31-.18.67-.28,1.02-.28s.7.09,1.01.27l109.15,63.98c.6.35.97.99.99,1.68l2.93,125.96c.02.73-.36,1.4-.99,1.77-.31.18-.66.27-1.01.27Z" style="fill:#cdc8bd; stroke-width:0px;"/><path d="m335.95,542.22l109.15,63.98,2.93,125.96-108.83-64.26-3.25-125.67m0-4c-.7,0-1.41.19-2.03.56-1.25.74-2,2.1-1.97,3.55l3.25,125.67c.04,1.38.78,2.64,1.96,3.34l108.83,64.26c.63.37,1.33.56,2.03.56s1.4-.18,2.02-.55c1.25-.73,2.01-2.09,1.98-3.54l-2.93-125.96c-.03-1.39-.78-2.66-1.98-3.36l-109.15-63.98c-.62-.37-1.32-.55-2.02-.55h0Z" style="fill:#614b2b; stroke-width:0px;"/><path d="m448.03,734.15c-.35,0-.71-.09-1.02-.28-.59-.35-.96-.98-.98-1.67l-2.93-125.96c-.02-.77.4-1.48,1.09-1.83l120.26-61.69c.29-.15.6-.22.91-.22.36,0,.71.09,1.03.28.59.35.96.99.97,1.68l2.55,125.72c.01.76-.4,1.47-1.08,1.82l-119.88,61.93c-.29.15-.6.22-.92.22Z" style="fill:#cdc8bd; stroke-width:0px;"/><path d="m565.36,544.5l2.55,125.72-119.88,61.93-2.93-125.96,120.26-61.69m0-4c-.63,0-1.25.15-1.83.44l-120.26,61.69c-1.36.7-2.21,2.12-2.17,3.65l2.93,125.96c.03,1.38.77,2.64,1.96,3.35.63.37,1.33.56,2.04.56.63,0,1.26-.15,1.84-.45l119.88-61.93c1.36-.7,2.19-2.11,2.16-3.63l-2.55-125.72c-.03-1.38-.76-2.65-1.95-3.35-.63-.38-1.34-.57-2.05-.57h0Z" style="fill:#614b2b; stroke-width:0px;"/><path d="m339.21,512.54c-.35,0-.71-.09-1.02-.28-.59-.35-.96-.98-.98-1.67l-3.25-125.67c-.02-.77.4-1.48,1.09-1.83l120.17-61.24c.29-.15.6-.22.91-.22.36,0,.71.09,1.03.28.59.35.96.98.97,1.67l2.87,125.44c.02.77-.4,1.48-1.09,1.83l-119.79,61.48c-.29.15-.6.22-.91.22Z" style="fill:#e4d598; stroke-width:0px;"/><path d="m456.12,323.63l2.87,125.44-119.79,61.48-3.25-125.67,120.17-61.24m0-4c-.62,0-1.24.14-1.82.44l-120.17,61.24c-1.37.7-2.22,2.13-2.18,3.67l3.25,125.67c.04,1.37.78,2.64,1.96,3.34.63.37,1.33.56,2.04.56.63,0,1.25-.15,1.83-.44l119.79-61.48c1.36-.7,2.21-2.12,2.17-3.65l-2.87-125.44c-.03-1.38-.77-2.64-1.95-3.34-.63-.38-1.34-.57-2.05-.57h0Z" style="fill:#614b2b; stroke-width:0px;"/><path d="m567.91,514.87c-.35,0-.7-.09-1.01-.27l-108.92-63.81c-.6-.35-.97-.99-.99-1.68l-2.87-125.44c-.02-.72.36-1.4.98-1.77.31-.19.67-.28,1.02-.28s.69.09,1.01.27l109.24,63.53c.6.35.98.99.99,1.69l2.55,125.72c.01.72-.36,1.4-.99,1.76-.31.18-.66.28-1.01.28Z" style="fill:#e4d598; stroke-width:0px;"/><path d="m456.12,323.63l109.24,63.52,2.55,125.72-108.92-63.81-2.87-125.44m0-4c-.7,0-1.41.19-2.03.56-1.25.74-2,2.09-1.96,3.54l2.87,125.44c.03,1.39.78,2.66,1.98,3.36l108.92,63.81c.62.37,1.32.55,2.02.55s1.4-.18,2.02-.55c1.25-.73,2-2.08,1.98-3.53l-2.55-125.72c-.03-1.4-.78-2.68-1.99-3.38l-109.24-63.52c-.62-.36-1.32-.54-2.01-.54h0Z" style="fill:#614b2b; stroke-width:0px;"/><path d="m448.03,576.8c-.35,0-.7-.09-1.02-.28l-108.83-64.26c-.63-.37-1-1.05-.98-1.78.02-.73.44-1.39,1.09-1.72l119.79-61.48c.29-.15.6-.22.91-.22.35,0,.7.09,1.01.27l108.92,63.81c.63.37,1.01,1.05.99,1.78-.02.73-.43,1.39-1.08,1.72l-119.88,61.93c-.29.15-.6.22-.92.22Z" style="fill:#cdc8bd; stroke-width:0px;"/><path d="m458.99,449.06l108.92,63.81-119.88,61.93-108.83-64.26,119.79-61.48m0-4c-.63,0-1.25.15-1.83.44l-119.79,61.48c-1.3.67-2.13,1.98-2.17,3.44-.04,1.46.71,2.82,1.96,3.56l108.83,64.26c.63.37,1.33.56,2.03.56.63,0,1.26-.15,1.84-.45l119.88-61.93c1.3-.67,2.12-1.99,2.16-3.45.04-1.46-.72-2.82-1.98-3.56l-108.92-63.81c-.62-.37-1.32-.55-2.02-.55h0Z" style="fill:#614b2b; stroke-width:0px;"/><path d="m448.03,576.8c-.35,0-.7-.09-1.02-.28l-108.83-64.26c-.59-.35-.96-.98-.98-1.67l-3.25-125.67c-.02-.73.36-1.41.98-1.77.31-.18.67-.28,1.02-.28s.7.09,1.01.27l109.15,63.98c.6.35.97.99.99,1.68l2.93,125.96c.02.73-.36,1.4-.99,1.77-.31.18-.66.27-1.01.27Z" style="fill:#cdc8bd; stroke-width:0px;"/><path d="m335.95,384.87l109.15,63.98,2.93,125.96-108.83-64.26-3.25-125.67m0-4c-.7,0-1.41.19-2.03.56-1.25.74-2,2.1-1.97,3.55l3.25,125.67c.04,1.38.78,2.64,1.96,3.34l108.83,64.26c.63.37,1.33.56,2.03.56s1.4-.18,2.02-.55c1.25-.73,2.01-2.09,1.98-3.54l-2.93-125.96c-.03-1.39-.78-2.66-1.98-3.36l-109.15-63.98c-.62-.37-1.32-.55-2.02-.55h0Z" style="fill:#614b2b; stroke-width:0px;"/><path d="m448.03,576.8c-.35,0-.71-.09-1.02-.28-.59-.35-.96-.98-.98-1.67l-2.93-125.96c-.02-.77.4-1.48,1.09-1.83l120.26-61.69c.29-.15.6-.22.91-.22.36,0,.71.09,1.03.28.59.35.96.99.97,1.68l2.55,125.72c.01.76-.4,1.47-1.08,1.82l-119.88,61.93c-.29.15-.6.22-.92.22Z" style="fill:#cdc8bd; stroke-width:0px;"/><path d="m565.36,387.15l2.55,125.72-119.88,61.93-2.93-125.96,120.26-61.69m0-4c-.63,0-1.25.15-1.83.44l-120.26,61.69c-1.36.7-2.21,2.12-2.17,3.65l2.93,125.96c.03,1.38.77,2.64,1.96,3.35.63.37,1.33.56,2.04.56.63,0,1.26-.15,1.84-.45l119.88-61.93c1.36-.7,2.19-2.11,2.16-3.63l-2.55-125.72c-.03-1.38-.76-2.65-1.95-3.35-.63-.38-1.34-.57-2.05-.57h0Z" style="fill:#614b2b; stroke-width:0px;"/><path d="m477.43,748.72c-.35,0-.71-.09-1.02-.28-.59-.35-.96-.98-.98-1.67l-3.25-125.67c-.02-.77.4-1.48,1.09-1.83l120.17-61.24c.29-.15.6-.22.91-.22.36,0,.71.09,1.03.28.59.35.96.98.97,1.67l2.87,125.44c.02.77-.4,1.48-1.09,1.83l-119.79,61.48c-.29.15-.6.22-.91.22Z" style="fill:#e4d598; stroke-width:0px;"/><path d="m594.35,559.8l2.87,125.44-119.79,61.48-3.25-125.67,120.17-61.24m0-4c-.62,0-1.24.14-1.82.44l-120.17,61.24c-1.37.7-2.22,2.13-2.18,3.67l3.25,125.67c.04,1.37.78,2.64,1.96,3.34.63.37,1.33.56,2.04.56.63,0,1.25-.15,1.83-.44l119.79-61.48c1.36-.7,2.21-2.12,2.17-3.65l-2.87-125.44c-.03-1.38-.77-2.64-1.95-3.34-.63-.38-1.34-.57-2.05-.57h0Z" style="fill:#614b2b; stroke-width:0px;"/><path d="m706.14,751.05c-.35,0-.7-.09-1.01-.27l-108.92-63.81c-.6-.35-.97-.99-.99-1.68l-2.87-125.44c-.02-.72.36-1.4.98-1.77.31-.19.67-.28,1.02-.28s.69.09,1.01.27l109.24,63.53c.6.35.98.99.99,1.69l2.55,125.72c.01.72-.36,1.4-.99,1.76-.31.18-.66.28-1.01.28Z" style="fill:#e4d598; stroke-width:0px;"/><path d="m594.35,559.8l109.24,63.52,2.55,125.72-108.92-63.81-2.87-125.44m0-4c-.7,0-1.41.19-2.03.56-1.25.74-2,2.09-1.96,3.54l2.87,125.44c.03,1.39.78,2.66,1.98,3.36l108.92,63.81c.62.37,1.32.55,2.02.55s1.4-.18,2.02-.55c1.25-.73,2-2.08,1.98-3.53l-2.55-125.72c-.03-1.4-.78-2.68-1.99-3.38l-109.24-63.52c-.62-.36-1.32-.54-2.01-.54h0Z" style="fill:#614b2b; stroke-width:0px;"/><path d="m586.26,812.98c-.35,0-.7-.09-1.02-.28l-108.83-64.26c-.63-.37-1-1.05-.98-1.78s.44-1.39,1.09-1.72l119.79-61.48c.29-.15.6-.22.91-.22.35,0,.7.09,1.01.27l108.92,63.81c.63.37,1.01,1.05.99,1.78-.02.73-.43,1.39-1.08,1.72l-119.88,61.93c-.29.15-.6.22-.92.22Z" style="fill:#cdc8bd; stroke-width:0px;"/><path d="m597.22,685.24l108.92,63.81-119.88,61.93-108.83-64.26,119.79-61.48m0-4c-.63,0-1.25.15-1.83.44l-119.79,61.48c-1.3.67-2.13,1.98-2.17,3.44-.04,1.46.71,2.82,1.96,3.56l108.83,64.26c.63.37,1.33.56,2.03.56.63,0,1.26-.15,1.84-.45l119.88-61.93c1.3-.67,2.12-1.99,2.16-3.45.04-1.46-.72-2.82-1.98-3.56l-108.92-63.81c-.62-.37-1.32-.55-2.02-.55h0Z" style="fill:#614b2b; stroke-width:0px;"/><path d="m586.26,812.98c-.35,0-.7-.09-1.02-.28l-108.83-64.26c-.59-.35-.96-.98-.98-1.67l-3.25-125.67c-.02-.73.36-1.41.98-1.77.31-.18.67-.28,1.02-.28s.7.09,1.01.27l109.15,63.98c.6.35.97.99.99,1.68l2.93,125.96c.02.73-.36,1.4-.99,1.77-.31.18-.66.27-1.01.27Z" style="fill:#cdc8bd; stroke-width:0px;"/><path d="m474.18,621.04l109.15,63.98,2.93,125.96-108.83-64.26-3.25-125.67m0-4c-.7,0-1.41.19-2.03.56-1.25.74-2,2.1-1.97,3.55l3.25,125.67c.04,1.38.78,2.64,1.96,3.34l108.83,64.26c.63.37,1.33.56,2.03.56s1.4-.18,2.02-.55c1.25-.73,2.01-2.09,1.98-3.54l-2.93-125.96c-.03-1.39-.78-2.66-1.98-3.36l-109.15-63.98c-.62-.37-1.32-.55-2.02-.55h0Z" style="fill:#614b2b; stroke-width:0px;"/><path d="m586.26,812.98c-.35,0-.71-.09-1.02-.28-.59-.35-.96-.98-.98-1.67l-2.93-125.96c-.02-.77.4-1.48,1.09-1.83l120.26-61.69c.29-.15.6-.22.91-.22.36,0,.71.09,1.03.28.59.35.96.99.97,1.68l2.55,125.72c.01.76-.4,1.47-1.08,1.82l-119.88,61.93c-.29.15-.6.22-.92.22Z" style="fill:#cdc8bd; stroke-width:0px;"/><path d="m703.59,623.33l2.55,125.72-119.88,61.93-2.93-125.96,120.26-61.69m0-4c-.63,0-1.25.15-1.83.44l-120.26,61.69c-1.36.7-2.21,2.12-2.17,3.65l2.93,125.96c.03,1.38.77,2.64,1.96,3.35.63.37,1.33.56,2.04.56.63,0,1.26-.15,1.84-.45l119.88-61.93c1.36-.7,2.19-2.11,2.16-3.63l-2.55-125.72c-.03-1.38-.76-2.65-1.95-3.35-.63-.38-1.34-.57-2.05-.57h0Z" style="fill:#614b2b; stroke-width:0px;"/><path d="m477.43,591.37c-.35,0-.71-.09-1.02-.28-.59-.35-.96-.98-.98-1.67l-3.25-125.67c-.02-.77.4-1.48,1.09-1.83l120.17-61.24c.29-.15.6-.22.91-.22.36,0,.71.09,1.03.28.59.35.96.98.97,1.67l2.87,125.44c.02.77-.4,1.48-1.09,1.83l-119.79,61.48c-.29.15-.6.22-.91.22Z" style="fill:#e4d598; stroke-width:0px;"/><path d="m594.35,402.45l2.87,125.44-119.79,61.48-3.25-125.67,120.17-61.24m0-4c-.62,0-1.24.14-1.82.44l-120.17,61.24c-1.37.7-2.22,2.13-2.18,3.67l3.25,125.67c.04,1.37.78,2.64,1.96,3.34.63.37,1.33.56,2.04.56.63,0,1.25-.15,1.83-.44l119.79-61.48c1.36-.7,2.21-2.12,2.17-3.65l-2.87-125.44c-.03-1.38-.77-2.64-1.95-3.34-.63-.38-1.34-.57-2.05-.57h0Z" style="fill:#614b2b; stroke-width:0px;"/><path d="m706.14,593.7c-.35,0-.7-.09-1.01-.27l-108.92-63.81c-.6-.35-.97-.99-.99-1.68l-2.87-125.44c-.02-.72.36-1.4.98-1.77.31-.19.67-.28,1.02-.28s.69.09,1.01.27l109.24,63.53c.6.35.98.99.99,1.69l2.55,125.72c.01.72-.36,1.4-.99,1.76-.31.18-.66.28-1.01.28Z" style="fill:#e4d598; stroke-width:0px;"/><path d="m594.35,402.45l109.24,63.52,2.55,125.72-108.92-63.81-2.87-125.44m0-4c-.7,0-1.41.19-2.03.56-1.25.74-2,2.09-1.96,3.54l2.87,125.44c.03,1.39.78,2.66,1.98,3.36l108.92,63.81c.62.37,1.32.55,2.02.55s1.4-.18,2.02-.55c1.25-.73,2-2.08,1.98-3.53l-2.55-125.72c-.03-1.4-.78-2.68-1.99-3.38l-109.24-63.52c-.62-.36-1.32-.54-2.01-.54h0Z" style="fill:#614b2b; stroke-width:0px;"/><path d="m586.26,655.63c-.35,0-.7-.09-1.02-.28l-108.83-64.26c-.63-.37-1-1.05-.98-1.78s.44-1.39,1.09-1.72l119.79-61.48c.29-.15.6-.22.91-.22.35,0,.7.09,1.01.27l108.92,63.81c.63.37,1.01,1.05.99,1.78-.02.73-.43,1.39-1.08,1.72l-119.88,61.93c-.29.15-.6.22-.92.22Z" style="fill:#cdc8bd; stroke-width:0px;"/><path d="m597.22,527.89l108.92,63.81-119.88,61.93-108.83-64.26,119.79-61.48m0-4c-.63,0-1.25.15-1.83.44l-119.79,61.48c-1.3.67-2.13,1.98-2.17,3.44-.04,1.46.71,2.82,1.96,3.56l108.83,64.26c.63.37,1.33.56,2.03.56.63,0,1.26-.15,1.84-.45l119.88-61.93c1.3-.67,2.12-1.99,2.16-3.45.04-1.46-.72-2.82-1.98-3.56l-108.92-63.81c-.62-.37-1.32-.55-2.02-.55h0Z" style="fill:#614b2b; stroke-width:0px;"/><path d="m586.26,655.63c-.35,0-.7-.09-1.02-.28l-108.83-64.26c-.59-.35-.96-.98-.98-1.67l-3.25-125.67c-.02-.73.36-1.41.98-1.77.31-.18.67-.28,1.02-.28s.7.09,1.01.27l109.15,63.98c.6.35.97.99.99,1.68l2.93,125.96c.02.73-.36,1.4-.99,1.77-.31.18-.66.27-1.01.27Z" style="fill:#cdc8bd; stroke-width:0px;"/><path d="m474.18,463.69l109.15,63.98,2.93,125.96-108.83-64.26-3.25-125.67m0-4c-.7,0-1.41.19-2.03.56-1.25.74-2,2.1-1.97,3.55l3.25,125.67c.04,1.38.78,2.64,1.96,3.34l108.83,64.26c.63.37,1.33.56,2.03.56s1.4-.18,2.02-.55c1.25-.73,2.01-2.09,1.98-3.54l-2.93-125.96c-.03-1.39-.78-2.66-1.98-3.36l-109.15-63.98c-.62-.37-1.32-.55-2.02-.55h0Z" style="fill:#614b2b; stroke-width:0px;"/><path d="m586.26,655.63c-.35,0-.71-.09-1.02-.28-.59-.35-.96-.98-.98-1.67l-2.93-125.96c-.02-.77.4-1.48,1.09-1.83l120.26-61.69c.29-.15.6-.22.91-.22.36,0,.71.09,1.03.28.59.35.96.99.97,1.68l2.55,125.72c.01.76-.4,1.47-1.08,1.82l-119.88,61.93c-.29.15-.6.22-.92.22Z" style="fill:#cdc8bd; stroke-width:0px;"/><path d="m703.59,465.98l2.55,125.72-119.88,61.93-2.93-125.96,120.26-61.69m0-4c-.63,0-1.25.15-1.83.44l-120.26,61.69c-1.36.7-2.21,2.12-2.17,3.65l2.93,125.96c.03,1.38.77,2.64,1.96,3.35.63.37,1.33.56,2.04.56.63,0,1.26-.15,1.84-.45l119.88-61.93c1.36-.7,2.19-2.11,2.16-3.63l-2.55-125.72c-.03-1.38-.76-2.65-1.95-3.35-.63-.38-1.34-.57-2.05-.57h0Z" style="fill:#614b2b; stroke-width:0px;"/><g style="opacity:.5;"><path d="m197.12,277.94c-.35,0-.71-.09-1.02-.28-.59-.35-.96-.98-.98-1.67l-3.25-125.67c-.02-.77.4-1.48,1.09-1.83l120.17-61.24c.29-.15.6-.22.91-.22.36,0,.71.09,1.03.28.59.35.96.98.97,1.67l2.88,125.44c.02.77-.4,1.48-1.09,1.83l-119.79,61.48c-.29.15-.6.22-.91.22Z" style="fill:#bdcccc; stroke-width:0px;"/><path d="m314.03,89.02l2.87,125.44-119.79,61.48-3.25-125.67,120.17-61.24m0-4c-.62,0-1.24.14-1.82.44l-120.17,61.24c-1.37.7-2.22,2.13-2.18,3.67l3.25,125.67c.04,1.37.78,2.64,1.96,3.34.63.37,1.33.56,2.04.56.63,0,1.25-.15,1.83-.44l119.79-61.48c1.36-.7,2.21-2.12,2.17-3.65l-2.87-125.44c-.03-1.38-.77-2.64-1.95-3.34-.63-.38-1.34-.57-2.05-.57h0Z" style="fill:#2c6157; stroke-width:0px;"/><path d="m425.82,280.27c-.35,0-.7-.09-1.01-.27l-108.92-63.81c-.6-.35-.97-.99-.99-1.68l-2.88-125.44c-.02-.72.36-1.4.98-1.77.31-.19.67-.28,1.02-.28s.69.09,1.01.27l109.24,63.52c.6.35.98.99.99,1.69l2.55,125.72c.01.72-.36,1.4-.99,1.77-.31.18-.66.27-1.01.27Z" style="fill:#bdcccc; stroke-width:0px;"/><path d="m314.03,89.02l109.24,63.52,2.55,125.72-108.92-63.81-2.87-125.44m0-4c-.7,0-1.41.19-2.03.56-1.25.74-2,2.09-1.96,3.54l2.87,125.44c.03,1.39.78,2.66,1.98,3.36l108.92,63.81c.62.37,1.32.55,2.02.55s1.4-.18,2.02-.55c1.25-.73,2-2.08,1.98-3.53l-2.55-125.72c-.03-1.4-.78-2.68-1.99-3.38l-109.24-63.52c-.62-.36-1.32-.54-2.01-.54h0Z" style="fill:#2c6157; stroke-width:0px;"/><path d="m305.94,342.2c-.35,0-.7-.09-1.02-.28l-108.83-64.26c-.63-.37-1-1.05-.98-1.78s.44-1.39,1.09-1.72l119.79-61.48c.29-.15.6-.22.91-.22.35,0,.7.09,1.01.27l108.92,63.81c.63.37,1.01,1.05.99,1.78-.02.73-.43,1.39-1.08,1.72l-119.88,61.93c-.29.15-.6.22-.92.22Z" style="fill:#6ba0d6; stroke-width:0px;"/><path d="m316.9,214.46l108.92,63.81-119.88,61.93-108.83-64.26,119.79-61.48m0-4c-.63,0-1.25.15-1.83.44l-119.79,61.48c-1.3.67-2.13,1.98-2.17,3.44-.04,1.46.71,2.82,1.96,3.56l108.83,64.26c.63.37,1.33.56,2.03.56.63,0,1.26-.15,1.84-.45l119.88-61.93c1.3-.67,2.12-1.99,2.16-3.45.04-1.46-.72-2.82-1.98-3.56l-108.92-63.81c-.62-.37-1.32-.55-2.02-.55h0Z" style="fill:#2c6157; stroke-width:0px;"/><path d="m305.94,342.2c-.35,0-.7-.09-1.02-.28l-108.83-64.26c-.59-.35-.96-.98-.98-1.67l-3.25-125.67c-.02-.73.36-1.4.98-1.77.31-.19.67-.28,1.02-.28s.7.09,1.01.27l109.15,63.98c.6.35.97.99.99,1.68l2.93,125.96c.02.73-.36,1.4-.99,1.77-.31.18-.66.27-1.01.27Z" style="fill:#6ba0d6; stroke-width:0px;"/><path d="m193.86,150.27l109.15,63.98,2.93,125.96-108.83-64.26-3.25-125.67m0-4c-.7,0-1.41.19-2.03.56-1.25.74-2,2.1-1.97,3.55l3.25,125.67c.04,1.38.78,2.64,1.96,3.34l108.83,64.26c.63.37,1.33.56,2.03.56s1.4-.18,2.02-.55c1.25-.73,2.01-2.09,1.98-3.54l-2.93-125.96c-.03-1.39-.78-2.66-1.98-3.36l-109.15-63.98c-.62-.37-1.32-.55-2.02-.55h0Z" style="fill:#2c6157; stroke-width:0px;"/><path d="m305.94,342.2c-.35,0-.71-.09-1.02-.28-.59-.35-.96-.98-.98-1.67l-2.93-125.96c-.02-.77.4-1.48,1.09-1.83l120.26-61.69c.29-.15.6-.22.91-.22.36,0,.71.09,1.03.28.59.35.96.99.97,1.68l2.55,125.72c.01.76-.4,1.47-1.08,1.82l-119.88,61.93c-.29.15-.6.22-.92.22Z" style="fill:#6ba0d6; stroke-width:0px;"/><path d="m423.27,152.55l2.55,125.72-119.88,61.93-2.93-125.96,120.26-61.69m0-4c-.63,0-1.25.15-1.83.44l-120.26,61.69c-1.36.7-2.21,2.12-2.17,3.65l2.93,125.96c.03,1.38.77,2.64,1.96,3.35.63.37,1.33.56,2.04.56.63,0,1.26-.15,1.84-.45l119.88-61.93c1.36-.7,2.19-2.11,2.16-3.63l-2.55-125.72c-.03-1.38-.76-2.65-1.95-3.35-.63-.38-1.34-.57-2.05-.57h0Z" style="fill:#2c6157; stroke-width:0px;"/></g><path d="m339.21,355.99c-.35,0-.71-.09-1.02-.28-.59-.35-.96-.98-.98-1.67l-3.25-125.67c-.02-.77.4-1.48,1.09-1.83l120.17-61.24c.29-.15.6-.22.91-.22.36,0,.71.09,1.03.28.59.35.96.98.97,1.67l2.87,125.44c.02.77-.4,1.48-1.09,1.83l-119.79,61.48c-.29.15-.6.22-.91.22Z" style="fill:#e4d598; stroke-width:0px;"/><path d="m456.12,167.07l2.87,125.44-119.79,61.48-3.25-125.67,120.17-61.24m0-4c-.62,0-1.24.14-1.82.44l-120.17,61.24c-1.37.7-2.22,2.13-2.18,3.67l3.25,125.67c.04,1.37.78,2.64,1.96,3.34.63.37,1.33.56,2.04.56.63,0,1.25-.15,1.83-.44l119.79-61.48c1.36-.7,2.21-2.12,2.17-3.65l-2.87-125.44c-.03-1.38-.77-2.64-1.95-3.34-.63-.38-1.34-.57-2.05-.57h0Z" style="fill:#614b2b; stroke-width:0px;"/><path d="m567.91,358.32c-.35,0-.7-.09-1.01-.27l-108.92-63.81c-.6-.35-.97-.99-.99-1.68l-2.87-125.44c-.02-.72.36-1.4.98-1.77.31-.19.67-.28,1.02-.28s.69.09,1.01.27l109.24,63.52c.6.35.98.99.99,1.69l2.55,125.72c.01.72-.36,1.4-.99,1.77-.31.18-.66.28-1.01.28Z" style="fill:#e4d598; stroke-width:0px;"/><path d="m456.12,167.07l109.24,63.52,2.55,125.72-108.92-63.81-2.87-125.44m0-4c-.7,0-1.41.19-2.03.56-1.25.74-2,2.09-1.96,3.54l2.87,125.44c.03,1.39.78,2.66,1.98,3.36l108.92,63.81c.62.37,1.32.55,2.02.55s1.4-.18,2.02-.55c1.25-.73,2-2.08,1.98-3.53l-2.55-125.72c-.03-1.4-.78-2.68-1.99-3.38l-109.24-63.52c-.62-.36-1.32-.54-2.01-.54h0Z" style="fill:#614b2b; stroke-width:0px;"/><path d="m448.03,420.25c-.35,0-.7-.09-1.02-.28l-108.83-64.26c-.63-.37-1-1.05-.98-1.78.02-.73.44-1.39,1.09-1.72l119.79-61.48c.29-.15.6-.22.91-.22.35,0,.7.09,1.01.27l108.92,63.81c.63.37,1.01,1.05.99,1.78-.02.73-.43,1.39-1.08,1.72l-119.88,61.93c-.29.15-.6.22-.92.22Z" style="fill:#cdc8bd; stroke-width:0px;"/><path d="m458.99,292.51l108.92,63.81-119.88,61.93-108.83-64.26,119.79-61.48m0-4c-.63,0-1.25.15-1.83.44l-119.79,61.48c-1.3.67-2.13,1.98-2.17,3.44-.04,1.46.71,2.82,1.96,3.56l108.83,64.26c.63.37,1.33.56,2.03.56.63,0,1.26-.15,1.84-.45l119.88-61.93c1.3-.67,2.12-1.99,2.16-3.45.04-1.46-.72-2.82-1.98-3.56l-108.92-63.81c-.62-.37-1.32-.55-2.02-.55h0Z" style="fill:#614b2b; stroke-width:0px;"/><path d="m448.03,420.25c-.35,0-.7-.09-1.02-.28l-108.83-64.26c-.59-.35-.96-.98-.98-1.67l-3.25-125.67c-.02-.73.36-1.4.98-1.77.31-.19.67-.28,1.02-.28s.7.09,1.01.27l109.15,63.98c.6.35.97.99.99,1.68l2.93,125.96c.02.73-.36,1.4-.99,1.77-.31.18-.66.27-1.01.27Z" style="fill:#cdc8bd; stroke-width:0px;"/><path d="m335.95,228.32l109.15,63.98,2.93,125.96-108.83-64.26-3.25-125.67m0-4c-.7,0-1.41.19-2.03.56-1.25.74-2,2.1-1.97,3.55l3.25,125.67c.04,1.38.78,2.64,1.96,3.34l108.83,64.26c.63.37,1.33.56,2.03.56s1.4-.18,2.02-.55c1.25-.73,2.01-2.09,1.98-3.54l-2.93-125.96c-.03-1.39-.78-2.66-1.98-3.36l-109.15-63.98c-.62-.37-1.32-.55-2.02-.55h0Z" style="fill:#614b2b; stroke-width:0px;"/><path d="m448.03,420.25c-.35,0-.71-.09-1.02-.28-.59-.35-.96-.98-.98-1.67l-2.93-125.96c-.02-.77.4-1.48,1.09-1.83l120.26-61.69c.29-.15.6-.22.91-.22.36,0,.71.09,1.03.28.59.35.96.99.97,1.68l2.55,125.72c.01.76-.4,1.47-1.08,1.82l-119.88,61.93c-.29.15-.6.22-.92.22Z" style="fill:#cdc8bd; stroke-width:0px;"/><path d="m565.36,230.6l2.55,125.72-119.88,61.93-2.93-125.96,120.26-61.69m0-4c-.63,0-1.25.15-1.83.44l-120.26,61.69c-1.36.7-2.21,2.12-2.17,3.65l2.93,125.96c.03,1.38.77,2.64,1.96,3.35.63.37,1.33.56,2.04.56.63,0,1.26-.15,1.84-.45l119.88-61.93c1.36-.7,2.19-2.11,2.16-3.63l-2.55-125.72c-.03-1.38-.76-2.65-1.95-3.35-.63-.38-1.34-.57-2.05-.57h0Z" style="fill:#614b2b; stroke-width:0px;"/><g style="opacity:.5;"><path d="m477.43,437.48c-.35,0-.71-.09-1.02-.28-.59-.35-.96-.98-.98-1.67l-3.25-125.67c-.02-.77.4-1.48,1.09-1.83l120.17-61.24c.29-.15.6-.22.91-.22.36,0,.71.09,1.03.28.59.35.96.98.97,1.67l2.87,125.44c.02.77-.4,1.48-1.09,1.83l-119.79,61.48c-.29.15-.6.22-.91.22Z" style="fill:#cdbfbd; stroke-width:0px;"/><path d="m594.35,248.57l2.87,125.44-119.79,61.48-3.25-125.67,120.17-61.24m0-4c-.62,0-1.24.14-1.82.44l-120.17,61.24c-1.37.7-2.22,2.13-2.18,3.67l3.25,125.67c.04,1.37.78,2.64,1.96,3.34.63.37,1.33.56,2.04.56.63,0,1.25-.15,1.83-.44l119.79-61.48c1.36-.7,2.21-2.12,2.17-3.65l-2.87-125.44c-.03-1.38-.77-2.64-1.95-3.34-.63-.38-1.34-.57-2.05-.57h0Z" style="fill:#612c2b; stroke-width:0px;"/><path d="m706.14,439.81c-.35,0-.7-.09-1.01-.27l-108.92-63.81c-.6-.35-.97-.99-.99-1.68l-2.87-125.44c-.02-.72.36-1.4.98-1.77.31-.19.67-.28,1.02-.28s.69.09,1.01.27l109.24,63.52c.6.35.98.99.99,1.69l2.55,125.72c.01.72-.36,1.4-.99,1.76-.31.18-.66.28-1.01.28Z" style="fill:#cdbfbd; stroke-width:0px;"/><path d="m594.35,248.57l109.24,63.52,2.55,125.72-108.92-63.81-2.87-125.44m0-4c-.7,0-1.41.19-2.03.56-1.25.74-2,2.09-1.96,3.54l2.87,125.44c.03,1.39.78,2.66,1.98,3.36l108.92,63.81c.62.37,1.32.55,2.02.55s1.4-.18,2.02-.55c1.25-.73,2-2.08,1.98-3.53l-2.55-125.72c-.03-1.4-.78-2.68-1.99-3.38l-109.24-63.52c-.62-.36-1.32-.54-2.01-.54h0Z" style="fill:#612c2b; stroke-width:0px;"/><path d="m586.26,501.74c-.35,0-.7-.09-1.02-.28l-108.83-64.26c-.63-.37-1-1.05-.98-1.78s.44-1.39,1.09-1.72l119.79-61.48c.29-.15.6-.22.91-.22.35,0,.7.09,1.01.27l108.92,63.81c.63.37,1.01,1.05.99,1.78-.02.73-.43,1.39-1.08,1.72l-119.88,61.93c-.29.15-.6.22-.92.22Z" style="fill:#e48d67; stroke-width:0px;"/><path d="m597.22,374.01l108.92,63.81-119.88,61.93-108.83-64.26,119.79-61.48m0-4c-.63,0-1.25.15-1.83.44l-119.79,61.48c-1.3.67-2.13,1.98-2.17,3.44-.04,1.46.71,2.82,1.96,3.56l108.83,64.26c.63.37,1.33.56,2.03.56.63,0,1.26-.15,1.84-.45l119.88-61.93c1.3-.67,2.12-1.99,2.16-3.45.04-1.46-.72-2.82-1.98-3.56l-108.92-63.81c-.62-.37-1.32-.55-2.02-.55h0Z" style="fill:#612c2b; stroke-width:0px;"/><path d="m586.26,501.74c-.35,0-.7-.09-1.02-.28l-108.83-64.26c-.59-.35-.96-.98-.98-1.67l-3.25-125.67c-.02-.73.36-1.4.98-1.77.31-.19.67-.28,1.02-.28s.7.09,1.01.27l109.15,63.98c.6.35.97.99.99,1.68l2.93,125.96c.02.73-.36,1.4-.99,1.77-.31.18-.66.27-1.01.27Z" style="fill:#e48d67; stroke-width:0px;"/><path d="m474.18,309.81l109.15,63.98,2.93,125.96-108.83-64.26-3.25-125.67m0-4c-.7,0-1.41.19-2.03.56-1.25.74-2,2.1-1.97,3.55l3.25,125.67c.04,1.38.78,2.64,1.96,3.34l108.83,64.26c.63.37,1.33.56,2.03.56s1.4-.18,2.02-.55c1.25-.73,2.01-2.09,1.98-3.54l-2.93-125.96c-.03-1.39-.78-2.66-1.98-3.36l-109.15-63.98c-.62-.37-1.32-.55-2.02-.55h0Z" style="fill:#612c2b; stroke-width:0px;"/><path d="m586.26,501.74c-.35,0-.71-.09-1.02-.28-.59-.35-.96-.98-.98-1.67l-2.93-125.96c-.02-.77.4-1.48,1.09-1.83l120.26-61.69c.29-.15.6-.22.91-.22.36,0,.71.09,1.03.28.59.35.96.99.97,1.68l2.55,125.72c.01.76-.4,1.47-1.08,1.82l-119.88,61.93c-.29.15-.6.22-.92.22Z" style="fill:#e48d67; stroke-width:0px;"/><path d="m703.59,312.09l2.55,125.72-119.88,61.93-2.93-125.96,120.26-61.69m0-4c-.63,0-1.25.15-1.83.44l-120.26,61.69c-1.36.7-2.21,2.12-2.17,3.65l2.93,125.96c.03,1.38.77,2.64,1.96,3.35.63.37,1.33.56,2.04.56.63,0,1.26-.15,1.84-.45l119.88-61.93c1.36-.7,2.19-2.11,2.16-3.63l-2.55-125.72c-.03-1.38-.76-2.65-1.95-3.35-.63-.38-1.34-.57-2.05-.57h0Z" style="fill:#612c2b; stroke-width:0px;"/></g></svg>